<svg width="512" height="512" viewBox="0 0 512 512" fill="none" xmlns="http://www.w3.org/2000/svg">
<path d="M347.47 141.913C347.47 204.922 311.341 256 266.774 256C222.207 256 186.079 204.922 186.079 141.913C186.079 78.9046 266.774 27.8262 266.774 27.8262C266.774 27.8262 347.47 78.9046 347.47 141.913Z" fill="#98BF7A"/>
<path d="M344.687 153.043C344.687 209.905 312.296 256 272.34 256C232.383 256 199.992 209.905 199.992 153.043C199.992 96.1821 272.34 50.0869 272.34 50.0869C272.34 50.0869 344.687 96.1821 344.687 153.043Z" fill="#9FE865"/>
<path d="M397.359 438.586C360.986 466.343 278.397 451.601 260.402 410.828C242.406 370.056 318.228 307.324 361.383 314.435C422.402 324.489 475.47 314.435 475.47 314.435C475.47 314.435 433.731 410.828 397.359 438.586Z" fill="#98BF7A"/>
<path d="M389.744 442.071C356.042 467.791 279.514 454.13 262.839 416.35C246.164 378.57 316.421 320.442 356.409 327.031C412.95 336.347 462.123 327.031 462.123 327.031C462.123 327.031 423.447 416.35 389.744 442.071Z" fill="#9FE865"/>
<path d="M48.0619 306.087C31.3553 254.135 75.7053 228.288 75.7053 169.107C116.463 151.078 174.675 197.894 193.908 250.549C211.305 298.175 208.77 359.746 168.013 377.776C168.013 377.776 124.276 388.313 99.8179 377.776C68.1059 364.113 58.6327 338.959 48.0619 306.087Z" fill="#98BF7A"/>
<path d="M62.1248 309.152C46.6617 261.067 87.7106 237.144 87.7106 182.368C125.434 165.68 179.313 209.012 197.115 257.747C213.217 301.829 210.871 358.817 173.148 375.505C173.148 375.505 132.666 385.258 110.028 375.504C80.6769 362.859 71.9088 339.577 62.1248 309.152Z" fill="#9FE865"/>
<path d="M161.035 450.783C161.035 450.783 247.225 375.475 265.846 316.487C280.456 270.207 265.846 194.783 265.846 194.783" stroke="#707070" stroke-width="8"/>
<path d="M199.992 411.737C251.167 412.444 279.246 409.135 327.992 395.13" stroke="#707070" stroke-width="6"/>
<path d="M211.122 400.696C165.698 378.419 147.08 350.899 122.079 283.826" stroke="#707070" stroke-width="6"/>
</svg>
