<?xml version="1.0" standalone="no"?>
<!DOCTYPE svg PUBLIC "-//W3C//DTD SVG 20010904//EN"
 "http://www.w3.org/TR/2001/REC-SVG-20010904/DTD/svg10.dtd">
<svg version="1.0" xmlns="http://www.w3.org/2000/svg"
 width="700.000000pt" height="700.000000pt" viewBox="0 0 700.000000 700.000000"
 preserveAspectRatio="xMidYMid meet">
<metadata>
Created by potrace 1.14, written by Peter Selinger 2001-2017
</metadata>
<g transform="translate(0.000000,700.000000) scale(0.100000,-0.100000)"
fill="#000000" stroke="none">
<path d="M3519 6529 c-68 -50 -128 -97 -135 -103 -6 -6 -20 -18 -30 -27 -120
-100 -272 -246 -349 -335 -27 -32 -57 -65 -65 -74 -31 -33 -129 -168 -177
-245 -117 -190 -184 -365 -210 -555 -13 -88 -7 -293 12 -440 31 -240 144 -553
271 -746 43 -67 158 -206 200 -244 189 -168 391 -256 593 -259 l44 -1 -7 -187
c-7 -221 -19 -353 -43 -458 -2 -11 -6 -31 -9 -45 -37 -184 -166 -457 -333
-701 -65 -95 -224 -301 -310 -404 -42 -49 -82 -97 -90 -106 -17 -21 -22 -19
-139 48 -121 70 -186 116 -314 222 -15 13 -12 18 40 54 107 75 178 158 240
282 162 323 152 843 -25 1300 -177 457 -452 811 -813 1044 -241 156 -500 220
-708 177 -112 -23 -126 -33 -128 -86 -10 -193 -34 -319 -95 -498 -22 -63 -43
-120 -47 -126 -3 -6 -7 -15 -8 -21 -1 -5 -15 -39 -32 -75 -16 -36 -46 -103
-67 -150 -21 -47 -46 -103 -55 -125 -50 -114 -102 -284 -116 -386 -11 -77 -6
-242 10 -316 34 -157 144 -463 223 -615 159 -308 412 -498 728 -547 91 -14
385 -6 496 14 19 4 51 8 73 10 21 3 46 7 55 9 9 3 30 8 48 11 18 3 44 10 58
15 21 8 30 6 48 -11 90 -86 250 -200 385 -276 34 -19 62 -38 62 -43 0 -9 -446
-461 -554 -560 l-78 -72 30 -36 c16 -21 34 -37 40 -37 15 0 181 154 377 351
l170 172 290 6 c160 3 310 8 335 11 25 2 71 7 103 10 l57 6 24 -54 c89 -193
306 -360 591 -452 203 -66 439 -92 657 -71 43 4 79 7 80 7 16 -5 216 60 298
96 213 94 342 206 538 471 79 107 236 352 312 487 155 277 437 841 425 853 -2
2 -29 -1 -61 -7 -33 -6 -90 -13 -129 -17 -38 -3 -79 -8 -90 -10 -128 -25 -841
-25 -995 1 -14 2 -52 6 -85 10 -82 8 -127 14 -145 20 -38 12 -180 15 -254 5
-217 -30 -525 -180 -741 -363 -79 -67 -202 -191 -245 -247 -19 -25 -37 -47
-40 -50 -17 -16 -94 -145 -120 -203 -54 -121 -79 -268 -59 -356 4 -20 7 -37 5
-38 -1 -1 -33 -5 -72 -8 -38 -4 -82 -8 -99 -10 -16 -3 -138 -8 -269 -11 l-240
-6 43 48 c509 581 749 973 825 1349 24 119 25 123 31 184 4 31 9 72 11 91 4
28 7 135 14 415 0 6 12 11 28 11 47 2 154 33 221 65 366 170 621 616 707 1234
14 94 12 356 -2 435 -72 404 -382 838 -878 1229 -70 54 -165 122 -202 144 -7
4 -67 -34 -135 -84z"/>
</g>
</svg>
